<svg version="1.1" xmlns="http://www.w3.org/2000/svg" viewBox="0 0 920.2930845672646 1233.2683432034457" width="920.2930845672646" height="1233.2683432034457">
  <!-- svg-source:excalidraw -->
  
  <defs>
    <style class="style-fonts">
      @font-face {
        font-family: "Virgil";
        src: url("https://excalidraw.com/Virgil.woff2");
      }
      @font-face {
        font-family: "Cascadia";
        src: url("https://excalidraw.com/Cascadia.woff2");
      }
      @font-face {
        font-family: "Assistant";
        src: url("https://excalidraw.com/Assistant-Regular.woff2");
      }
    </style>
    
  </defs>
  <rect x="0" y="0" width="920.2930845672646" height="1233.2683432034457" fill="#ffffff"></rect><g stroke-linecap="round" transform="translate(27.190618436625243 15.065516274390689) rotate(0 132.33381031584528 168.51496444714385)"><path d="M32 0 C99.85 0.27, 171.13 -1.95, 232.67 0 M32 0 C109.19 1.11, 186.36 0.22, 232.67 0 M232.67 0 C252.43 -0.91, 264.13 10.85, 264.67 32 M232.67 0 C252.22 0.9, 264.44 8.77, 264.67 32 M264.67 32 C262.71 122.94, 265.18 216.46, 264.67 305.03 M264.67 32 C266.34 123.36, 266.48 213.95, 264.67 305.03 M264.67 305.03 C263.07 324.63, 253.65 335.18, 232.67 337.03 M264.67 305.03 C264.68 325.45, 256.03 337.35, 232.67 337.03 M232.67 337.03 C162.33 336.48, 93.52 336.87, 32 337.03 M232.67 337.03 C189.81 338.05, 145.92 337.14, 32 337.03 M32 337.03 C10.35 335.28, -1.36 327.02, 0 305.03 M32 337.03 C9.06 336.57, 1.54 327.08, 0 305.03 M0 305.03 C0.48 201.1, 1.32 99.36, 0 32 M0 305.03 C-1.15 240.85, -0.55 176.08, 0 32 M0 32 C-0.31 9.24, 11.04 0.21, 32 0 M0 32 C1.34 10.55, 9.63 1.37, 32 0" stroke="#1e1e1e" stroke-width="2" fill="none"></path></g><g transform="translate(102.526720189466 77.51517956950875) rotate(0 45.766666412353516 87.5)"><text x="0" y="17.52" font-family="Virgil, Segoe UI Emoji" font-size="20px" fill="#1e1e1e" text-anchor="start" style="white-space: pre;" direction="ltr" dominant-baseline="alphabetic">Email</text><text x="0" y="42.519999999999996" font-family="Virgil, Segoe UI Emoji" font-size="20px" fill="#1e1e1e" text-anchor="start" style="white-space: pre;" direction="ltr" dominant-baseline="alphabetic"></text><text x="0" y="67.52" font-family="Virgil, Segoe UI Emoji" font-size="20px" fill="#1e1e1e" text-anchor="start" style="white-space: pre;" direction="ltr" dominant-baseline="alphabetic">Username</text><text x="0" y="92.52" font-family="Virgil, Segoe UI Emoji" font-size="20px" fill="#1e1e1e" text-anchor="start" style="white-space: pre;" direction="ltr" dominant-baseline="alphabetic"></text><text x="0" y="117.52" font-family="Virgil, Segoe UI Emoji" font-size="20px" fill="#1e1e1e" text-anchor="start" style="white-space: pre;" direction="ltr" dominant-baseline="alphabetic">Password</text><text x="0" y="142.52" font-family="Virgil, Segoe UI Emoji" font-size="20px" fill="#1e1e1e" text-anchor="start" style="white-space: pre;" direction="ltr" dominant-baseline="alphabetic"></text><text x="0" y="167.52" font-family="Virgil, Segoe UI Emoji" font-size="20px" fill="#1e1e1e" text-anchor="start" style="white-space: pre;" direction="ltr" dominant-baseline="alphabetic"></text></g><g transform="translate(132.26465509190314 368.94694161339277) rotate(0 40.29999923706055 12.5)"><text x="0" y="17.52" font-family="Virgil, Segoe UI Emoji" font-size="20px" fill="#1e1e1e" text-anchor="start" style="white-space: pre;" direction="ltr" dominant-baseline="alphabetic">Register</text></g><g stroke-linecap="round" transform="translate(429.1483718679009 10) rotate(0 132.3338103158453 168.51496444714385)"><path d="M32 0 C100.65 -0.45, 172.67 1.21, 232.67 0 M32 0 C79.62 -1.83, 126.05 -1.11, 232.67 0 M232.67 0 C252.74 0.56, 266.42 12.37, 264.67 32 M232.67 0 C252.17 1.36, 262.69 8.81, 264.67 32 M264.67 32 C264.81 95.45, 264.57 156.16, 264.67 305.03 M264.67 32 C263.36 86.65, 264.46 141.68, 264.67 305.03 M264.67 305.03 C264.29 327.9, 255.63 337.98, 232.67 337.03 M264.67 305.03 C266.19 327.72, 256.03 338.56, 232.67 337.03 M232.67 337.03 C184.94 340.29, 138.76 338.43, 32 337.03 M232.67 337.03 C155.14 337.4, 75.11 336.83, 32 337.03 M32 337.03 C11.92 338.58, -1.12 324.77, 0 305.03 M32 337.03 C9.33 335.15, -0.78 328.22, 0 305.03 M0 305.03 C1.86 245.93, 0.4 187, 0 32 M0 305.03 C-0.81 233.19, -2.17 162.81, 0 32 M0 32 C0.6 9.45, 10.27 0.59, 32 0 M0 32 C-1.49 10.74, 9.44 2.06, 32 0" stroke="#1e1e1e" stroke-width="2" fill="none"></path></g><g transform="translate(504.4844736207416 72.44966329511806) rotate(0 45.766666412353516 87.5)"><text x="0" y="17.52" font-family="Virgil, Segoe UI Emoji" font-size="20px" fill="#1e1e1e" text-anchor="start" style="white-space: pre;" direction="ltr" dominant-baseline="alphabetic"></text><text x="0" y="42.519999999999996" font-family="Virgil, Segoe UI Emoji" font-size="20px" fill="#1e1e1e" text-anchor="start" style="white-space: pre;" direction="ltr" dominant-baseline="alphabetic"></text><text x="0" y="67.52" font-family="Virgil, Segoe UI Emoji" font-size="20px" fill="#1e1e1e" text-anchor="start" style="white-space: pre;" direction="ltr" dominant-baseline="alphabetic">Username</text><text x="0" y="92.52" font-family="Virgil, Segoe UI Emoji" font-size="20px" fill="#1e1e1e" text-anchor="start" style="white-space: pre;" direction="ltr" dominant-baseline="alphabetic"></text><text x="0" y="117.52" font-family="Virgil, Segoe UI Emoji" font-size="20px" fill="#1e1e1e" text-anchor="start" style="white-space: pre;" direction="ltr" dominant-baseline="alphabetic">Password</text><text x="0" y="142.52" font-family="Virgil, Segoe UI Emoji" font-size="20px" fill="#1e1e1e" text-anchor="start" style="white-space: pre;" direction="ltr" dominant-baseline="alphabetic"></text><text x="0" y="167.52" font-family="Virgil, Segoe UI Emoji" font-size="20px" fill="#1e1e1e" text-anchor="start" style="white-space: pre;" direction="ltr" dominant-baseline="alphabetic"></text></g><g transform="translate(534.2224085231786 363.8814253390021) rotate(0 23.399999618530273 12.5)"><text x="0" y="17.52" font-family="Virgil, Segoe UI Emoji" font-size="20px" fill="#1e1e1e" text-anchor="start" style="white-space: pre;" direction="ltr" dominant-baseline="alphabetic">Login</text></g><g stroke-linecap="round" transform="translate(220.12459471567934 592.476727322011) rotate(0 247.8339087449757 178.5932213306761)"><path d="M32 0 C133.3 1.44, 234.09 0.42, 463.67 0 M32 0 C150.09 2.1, 268.91 2.22, 463.67 0 M463.67 0 C485.37 0.74, 496.23 11.74, 495.67 32 M463.67 0 C486.6 0.43, 497 9.62, 495.67 32 M495.67 32 C495.83 100.7, 495.29 170.2, 495.67 325.19 M495.67 32 C496.41 136.7, 496.28 241.63, 495.67 325.19 M495.67 325.19 C494.98 345.81, 486.78 356.71, 463.67 357.19 M495.67 325.19 C493.87 346.86, 486.56 355.45, 463.67 357.19 M463.67 357.19 C370.77 357.07, 279.08 357.88, 32 357.19 M463.67 357.19 C309.95 356.03, 156.45 356.38, 32 357.19 M32 357.19 C11.42 356.09, 1.72 346.66, 0 325.19 M32 357.19 C11.16 358.21, -1.8 348.56, 0 325.19 M0 325.19 C0.68 207.71, 0.32 89.65, 0 32 M0 325.19 C0.27 218.95, -0.56 114.53, 0 32 M0 32 C-1.9 9.8, 11.38 -1.96, 32 0 M0 32 C1.37 9.81, 10.96 0.54, 32 0" stroke="#1e1e1e" stroke-width="2" fill="none"></path></g><g stroke-linecap="round" transform="translate(253.55113346741018 624.9482221094067) rotate(0 76.40351714681333 65.42051155695887)"><path d="M32 0 C58.01 0.46, 83.38 0.7, 120.81 0 M32 0 C62.47 0.02, 94.49 0.18, 120.81 0 M120.81 0 C142.59 0.86, 150.98 11.14, 152.81 32 M120.81 0 C143.89 1.07, 152.51 9.15, 152.81 32 M152.81 32 C151.89 54.26, 152.32 72.06, 152.81 98.84 M152.81 32 C152.23 46.23, 152 61.81, 152.81 98.84 M152.81 98.84 C153.69 119.5, 141.95 130.32, 120.81 130.84 M152.81 98.84 C150.87 121.68, 140.54 132.57, 120.81 130.84 M120.81 130.84 C103.4 131.9, 86.16 131.56, 32 130.84 M120.81 130.84 C100.78 132.24, 79.75 131.24, 32 130.84 M32 130.84 C10.65 128.91, -1.94 119.56, 0 98.84 M32 130.84 C11.51 131.45, 0.99 119.9, 0 98.84 M0 98.84 C-1.31 75.43, 0.66 50.03, 0 32 M0 98.84 C0.81 81.32, 0.56 64.5, 0 32 M0 32 C-1.51 12.41, 8.93 1.69, 32 0 M0 32 C-0.83 12.26, 11.54 -0.02, 32 0" stroke="#1e1e1e" stroke-width="2" fill="none"></path></g><g stroke-linecap="round" transform="translate(527.648751231603 626.8583100380769) rotate(0 77.83608309331606 69.2406874142996)"><path d="M32 0 C62.64 -1.26, 94.34 0.53, 123.67 0 M32 0 C66.32 1.28, 99.1 1.68, 123.67 0 M123.67 0 C143.26 -1.51, 157.54 9.4, 155.67 32 M123.67 0 C143.51 -0.03, 154.92 12.31, 155.67 32 M155.67 32 C155.05 51.3, 154.23 73.99, 155.67 106.48 M155.67 32 C154.76 54.08, 155.71 76.79, 155.67 106.48 M155.67 106.48 C153.89 128.73, 145.03 137.95, 123.67 138.48 M155.67 106.48 C157.22 129.1, 142.93 139.56, 123.67 138.48 M123.67 138.48 C88.48 139.38, 52.61 139.96, 32 138.48 M123.67 138.48 C92.59 137.42, 64 137.92, 32 138.48 M32 138.48 C11.64 139.74, 0.99 127.76, 0 106.48 M32 138.48 C9.74 136.79, 0.43 129.68, 0 106.48 M0 106.48 C1.14 81.79, 0.3 61.44, 0 32 M0 106.48 C-0.24 78.28, -0.53 50.69, 0 32 M0 32 C-0.96 9.06, 12.49 -0.49, 32 0 M0 32 C0.36 11.35, 12.24 -0.6, 32 0" stroke="#1e1e1e" stroke-width="2" fill="none"></path></g><g transform="translate(577.6848350878585 683.5989974523765) rotate(0 27.799999237060547 12.5)"><text x="27.799999237060547" y="17.52" font-family="Virgil, Segoe UI Emoji" font-size="20px" fill="#1e1e1e" text-anchor="middle" style="white-space: pre;" direction="ltr" dominant-baseline="alphabetic">Study</text></g><g stroke-linecap="round" transform="translate(381.5270246883225 792.0809158680607) rotate(0 91.6842205761759 62.555379663953374)"><path d="M31.28 0 C66.37 0.9, 101.2 -0.91, 152.09 0 M31.28 0 C75.4 0.2, 120.61 -0.31, 152.09 0 M152.09 0 C174.61 0.63, 184.93 8.66, 183.37 31.28 M152.09 0 C174.08 1.7, 181.46 8.51, 183.37 31.28 M183.37 31.28 C182.22 49.59, 183.26 69.71, 183.37 93.83 M183.37 31.28 C183.15 55.37, 182.74 80.4, 183.37 93.83 M183.37 93.83 C181.53 113.75, 173.66 123.92, 152.09 125.11 M183.37 93.83 C183.03 116.1, 172.86 126.38, 152.09 125.11 M152.09 125.11 C116.43 124.83, 76.3 127.37, 31.28 125.11 M152.09 125.11 C121.09 125.04, 89.5 125.15, 31.28 125.11 M31.28 125.11 C8.81 125.68, -0.84 115.95, 0 93.83 M31.28 125.11 C11.17 126.65, 1.6 114.81, 0 93.83 M0 93.83 C1.48 67.94, 1.22 44.67, 0 31.28 M0 93.83 C-0.88 81.34, 0.56 68.55, 0 31.28 M0 31.28 C-1.29 12.1, 9.23 1.59, 31.28 0 M0 31.28 C1.98 12.56, 11.65 -2.29, 31.28 0" stroke="#1e1e1e" stroke-width="2" fill="none"></path></g><g transform="translate(433.9362437386195 842.1362955320142) rotate(0 39.275001525878906 12.5)"><text x="39.275001525878906" y="17.52" font-family="Virgil, Segoe UI Emoji" font-size="20px" fill="#1e1e1e" text-anchor="middle" style="white-space: pre;" direction="ltr" dominant-baseline="alphabetic">Company</text></g><g transform="translate(287.93271618347615 687.0260797911925) rotate(0 29.54166603088379 12.5)"><text x="0" y="17.52" font-family="Virgil, Segoe UI Emoji" font-size="20px" fill="#1e1e1e" text-anchor="start" style="white-space: pre;" direction="ltr" dominant-baseline="alphabetic">Coding</text></g><g stroke-linecap="round"><g transform="translate(247.1642769559188 681.2883547242101) rotate(0 -48.39100933392007 76.19045698115775)"><path d="M0.44 0.2 C-15.84 25.45, -80.93 126.3, -97.22 151.68 M-0.79 -0.74 C-16.72 24.68, -79.23 127.92, -94.91 153.12" stroke="#1e1e1e" stroke-width="2" fill="none"></path></g><g transform="translate(247.1642769559188 681.2883547242101) rotate(0 -48.39100933392007 76.19045698115775)"><path d="M-89.92 128.62 C-91.23 135.59, -93.53 143.69, -94.91 153.12 M-89.92 128.62 C-92.27 137.42, -92.99 146.64, -94.91 153.12" stroke="#1e1e1e" stroke-width="2" fill="none"></path></g><g transform="translate(247.1642769559188 681.2883547242101) rotate(0 -48.39100933392007 76.19045698115775)"><path d="M-75.34 137.56 C-81.55 141.58, -88.74 146.68, -94.91 153.12 M-75.34 137.56 C-82.89 143.15, -88.73 149.23, -94.91 153.12" stroke="#1e1e1e" stroke-width="2" fill="none"></path></g></g><mask></mask><g stroke-linecap="round" transform="translate(10 843.0638487454216) rotate(0 98.84705030868969 83.56634687932709)"><path d="M32 0 C67.93 0.99, 105.2 1.55, 165.69 0 M32 0 C69.43 -0.33, 105.17 0.55, 165.69 0 M165.69 0 C187.24 1.44, 196.75 10.61, 197.69 32 M165.69 0 C187.32 0.08, 199.01 10.34, 197.69 32 M197.69 32 C195.93 54, 199.29 80.35, 197.69 135.13 M197.69 32 C198.19 58.01, 197.64 83.37, 197.69 135.13 M197.69 135.13 C198.69 158.04, 185.76 165.95, 165.69 167.13 M197.69 135.13 C196.22 154.63, 188.25 169.06, 165.69 167.13 M165.69 167.13 C123.6 168.46, 77.52 170.13, 32 167.13 M165.69 167.13 C126.87 167.62, 89.98 167.34, 32 167.13 M32 167.13 C11.6 165.71, -1.43 155.86, 0 135.13 M32 167.13 C9.92 169.05, 2.14 158.2, 0 135.13 M0 135.13 C0.78 100.53, -1.67 70.84, 0 32 M0 135.13 C-1.01 108.42, -0.9 79.36, 0 32 M0 32 C-0.95 10.61, 12.16 -0.3, 32 0 M0 32 C-0.49 11.67, 10.67 -0.43, 32 0" stroke="#1e1e1e" stroke-width="2" fill="none"></path></g><g transform="translate(53.39704954575029 889.1301956247488) rotate(0 55.45000076293945 37.5)"><text x="55.45000076293945" y="17.52" font-family="Virgil, Segoe UI Emoji" font-size="20px" fill="#1e1e1e" text-anchor="middle" style="white-space: pre;" direction="ltr" dominant-baseline="alphabetic">content</text><text x="55.45000076293945" y="42.519999999999996" font-family="Virgil, Segoe UI Emoji" font-size="20px" fill="#1e1e1e" text-anchor="middle" style="white-space: pre;" direction="ltr" dominant-baseline="alphabetic">complete</text><text x="55.45000076293945" y="67.52" font-family="Virgil, Segoe UI Emoji" font-size="20px" fill="#1e1e1e" text-anchor="middle" style="white-space: pre;" direction="ltr" dominant-baseline="alphabetic">created by:</text></g><g stroke-linecap="round"><g transform="translate(483.38843250944535 924.3395823665387) rotate(0 -0.42214756571780754 50.333277919001716)"><path d="M-0.81 -0.44 C-1.03 16.71, -1.92 85.32, -1.85 102.39 M0.96 -1.72 C1.17 15.17, 0.69 83.91, 0.39 100.87" stroke="#1e1e1e" stroke-width="2" fill="none"></path></g><g transform="translate(483.38843250944535 924.3395823665387) rotate(0 -0.42214756571780754 50.333277919001716)"><path d="M-7.9 77.28 C-6.65 81.79, -1.9 90.16, 0.39 100.87 M-7.9 77.28 C-4.37 85.02, -2.36 94.3, 0.39 100.87" stroke="#1e1e1e" stroke-width="2" fill="none"></path></g><g transform="translate(483.38843250944535 924.3395823665387) rotate(0 -0.42214756571780754 50.333277919001716)"><path d="M9.2 77.48 C6.14 81.82, 6.58 90.14, 0.39 100.87 M9.2 77.48 C6.53 85.13, 2.35 94.34, 0.39 100.87" stroke="#1e1e1e" stroke-width="2" fill="none"></path></g></g><mask></mask><g stroke-linecap="round" transform="translate(395.5243877906097 1033.2145943007476) rotate(0 95.50439643351672 95.0268744513491)"><path d="M32 0 C63.48 0.66, 100.62 0.41, 159.01 0 M32 0 C66.53 -1.3, 101.37 -0.49, 159.01 0 M159.01 0 C181.94 0.11, 192.29 11.04, 191.01 32 M159.01 0 C182.51 -2.22, 192.23 8.85, 191.01 32 M191.01 32 C194.04 69.28, 190.92 107.86, 191.01 158.05 M191.01 32 C190.65 58.25, 191.56 86.81, 191.01 158.05 M191.01 158.05 C192.54 179.53, 178.38 191.55, 159.01 190.05 M191.01 158.05 C190.27 180.71, 181.93 190.44, 159.01 190.05 M159.01 190.05 C125.87 187.97, 90.46 187.75, 32 190.05 M159.01 190.05 C132.73 189.15, 107.01 190.11, 32 190.05 M32 190.05 C9.92 188.73, 0.89 180.85, 0 158.05 M32 190.05 C9 187.92, -0.34 181.33, 0 158.05 M0 158.05 C-0.62 113, -0.17 66.18, 0 32 M0 158.05 C-0.71 120.78, -1.39 85.61, 0 32 M0 32 C1.98 10.18, 10.56 -0.8, 32 0 M0 32 C0.96 12.66, 9.67 1.69, 32 0" stroke="#1e1e1e" stroke-width="2" fill="none"></path></g><g transform="translate(442.321542043033 1062.820957195138) rotate(0 36.65833282470703 12.5)"><text x="0" y="17.52" font-family="Virgil, Segoe UI Emoji" font-size="20px" fill="#1e1e1e" text-anchor="start" style="white-space: pre;" direction="ltr" dominant-baseline="alphabetic">content</text></g><g transform="translate(448.05180582904416 1100.067671804209) rotate(0 46.733333587646484 37.5)"><text x="0" y="17.52" font-family="Virgil, Segoe UI Emoji" font-size="20px" fill="#1e1e1e" text-anchor="start" style="white-space: pre;" direction="ltr" dominant-baseline="alphabetic">status</text><text x="0" y="42.519999999999996" font-family="Virgil, Segoe UI Emoji" font-size="20px" fill="#1e1e1e" text-anchor="start" style="white-space: pre;" direction="ltr" dominant-baseline="alphabetic"></text><text x="0" y="67.52" font-family="Virgil, Segoe UI Emoji" font-size="20px" fill="#1e1e1e" text-anchor="start" style="white-space: pre;" direction="ltr" dominant-baseline="alphabetic">completed</text></g><g stroke-linecap="round"><g transform="translate(694.453148627517 699.8744056238891) rotate(0 61.36454721818461 35.93472555806278)"><path d="M-0.34 -0.14 C20.28 11.72, 102.78 59.69, 123.07 71.6 M1.68 -1.26 C22.27 10.76, 102.19 60.84, 122.55 73.12" stroke="#1e1e1e" stroke-width="2" fill="none"></path></g><g transform="translate(694.453148627517 699.8744056238891) rotate(0 61.36454721818461 35.93472555806278)"><path d="M98.07 68.09 C103.88 70.77, 110.09 69.25, 122.55 73.12 M98.07 68.09 C104.21 69.13, 112.14 71.38, 122.55 73.12" stroke="#1e1e1e" stroke-width="2" fill="none"></path></g><g transform="translate(694.453148627517 699.8744056238891) rotate(0 61.36454721818461 35.93472555806278)"><path d="M107.03 53.52 C110.7 59.76, 114.71 61.83, 122.55 73.12 M107.03 53.52 C110.77 58.5, 116.25 64.74, 122.55 73.12" stroke="#1e1e1e" stroke-width="2" fill="none"></path></g></g><mask></mask><g stroke-linecap="round" transform="translate(759.3961382023084 778.1880106993726) rotate(0 75.4484731824781 85.95395679016494)"><path d="M32 0 C63.61 1.71, 96.76 1.34, 118.9 0 M32 0 C51.01 -1.02, 68.99 -0.36, 118.9 0 M118.9 0 C138.8 1.69, 151.25 11.73, 150.9 32 M118.9 0 C138.11 1.83, 149.46 9.9, 150.9 32 M150.9 32 C150.28 56.19, 150.69 83.08, 150.9 139.91 M150.9 32 C150.69 60.96, 149.95 89.58, 150.9 139.91 M150.9 139.91 C149.12 163.06, 141.59 173.24, 118.9 171.91 M150.9 139.91 C152.4 161.65, 139.12 174.17, 118.9 171.91 M118.9 171.91 C98.88 170.04, 79.13 173.72, 32 171.91 M118.9 171.91 C97.75 171.67, 76.41 171.78, 32 171.91 M32 171.91 C11.05 172.05, -1.25 161.83, 0 139.91 M32 171.91 C10.14 170.17, -0.43 162.66, 0 139.91 M0 139.91 C0.84 97.15, -0.22 52.81, 0 32 M0 139.91 C-0.59 99.08, -0.83 59.27, 0 32 M0 32 C1.43 9.71, 11.44 -1.19, 32 0 M0 32 C1.77 8.38, 10.87 -0.4, 32 0" stroke="#1e1e1e" stroke-width="2" fill="none"></path></g><g transform="translate(774.6768416316712 798.2439339504112) rotate(0 53.92499923706055 62.5)"><text x="0" y="17.52" font-family="Virgil, Segoe UI Emoji" font-size="20px" fill="#1e1e1e" text-anchor="start" style="white-space: pre;" direction="ltr" dominant-baseline="alphabetic">content</text><text x="0" y="42.519999999999996" font-family="Virgil, Segoe UI Emoji" font-size="20px" fill="#1e1e1e" text-anchor="start" style="white-space: pre;" direction="ltr" dominant-baseline="alphabetic"></text><text x="0" y="67.52" font-family="Virgil, Segoe UI Emoji" font-size="20px" fill="#1e1e1e" text-anchor="start" style="white-space: pre;" direction="ltr" dominant-baseline="alphabetic">finish time </text><text x="0" y="92.52" font-family="Virgil, Segoe UI Emoji" font-size="20px" fill="#1e1e1e" text-anchor="start" style="white-space: pre;" direction="ltr" dominant-baseline="alphabetic"></text><text x="0" y="117.52" font-family="Virgil, Segoe UI Emoji" font-size="20px" fill="#1e1e1e" text-anchor="start" style="white-space: pre;" direction="ltr" dominant-baseline="alphabetic">status</text></g></svg>